HIERARCHY
ROOT Hips
{
	OFFSET -3.958830 18.904000 13.208200
	CHANNELS 6 Xposition Yposition Zposition Zrotation Yrotation Xrotation 
	JOINT LHipJoint
	{
		OFFSET 0.000000 0.000000 0.000000
		CHANNELS 3 Zrotation Yrotation Xrotation
		JOINT LeftUpLeg
		{
			OFFSET 1.800000 -1.400000 0.085000
			CHANNELS 3 Zrotation Yrotation Xrotation
			JOINT LeftLeg
			{
				OFFSET 2.215000 -6.000000 0.000000
				CHANNELS 3 Zrotation Yrotation Xrotation
				JOINT LeftFoot
				{
					OFFSET 2.500000 -6.900000 0.000000
					CHANNELS 3 Zrotation Yrotation Xrotation
					JOINT LeftToeBase
					{
						OFFSET 0.200000 -0.500000 1.950000
						CHANNELS 3 Zrotation Yrotation Xrotation
						End Site
						{
							OFFSET 0.000000 0.000000 0.000000
						}
					}
				}
			}
		}
	}
	JOINT RHipJoint
	{
		OFFSET 0.000000 0.000000 0.000000
		CHANNELS 3 Zrotation Yrotation Xrotation
		JOINT RightUpLeg
		{
			OFFSET -1.800000 -1.400000 0.085000
			CHANNELS 3 Zrotation Yrotation Xrotation
			JOINT RightLeg
			{
				OFFSET -2.215000 -6.000000 0.000000
				CHANNELS 3 Zrotation Yrotation Xrotation
				JOINT RightFoot
				{
					OFFSET -2.500000 -6.900000 0.000000
					CHANNELS 3 Zrotation Yrotation Xrotation
					JOINT RightToeBase
					{
						OFFSET -0.200000 -0.500000 1.950000
						CHANNELS 3 Zrotation Yrotation Xrotation
						End Site
						{
							OFFSET 0.000000 0.000000 0.000000
						}
					}
				}
			}
		}
	}
	JOINT LowerBack
	{
		OFFSET 0.000000 0.000000 0.000000
		CHANNELS 3 Zrotation Yrotation Xrotation
		JOINT Spine
		{
			OFFSET -0.087000 1.940000 -0.288900
			CHANNELS 3 Zrotation Yrotation Xrotation
			JOINT Spine1
			{
				OFFSET 0.000000 1.950000 0.060000
				CHANNELS 3 Zrotation Yrotation Xrotation
				JOINT Neck
				{
					OFFSET 0.000000 0.000000 0.000000
					CHANNELS 3 Zrotation Yrotation Xrotation
					JOINT Neck1
					{
						OFFSET 0.000000 1.600000 0.340000
						CHANNELS 3 Zrotation Yrotation Xrotation
						JOINT Head
						{
							OFFSET 0.000000 1.667000 -0.240000
							CHANNELS 3 Zrotation Yrotation Xrotation
							End Site
							{
								OFFSET 0.000000 0.000000 0.000000
							}
						}
					}
				}
				JOINT LeftShoulder
				{
					OFFSET 0.000000 0.000000 0.000000
					CHANNELS 3 Zrotation Yrotation Xrotation
					JOINT LeftArm
					{
						OFFSET 2.700000 1.550000 -0.730000
						CHANNELS 3 Zrotation Yrotation Xrotation
						JOINT LeftForeArm
						{
							OFFSET 5.450000 0.000000 0.000000
							CHANNELS 3 Zrotation Yrotation Xrotation
							JOINT LeftHand
							{
								OFFSET 3.450000 0.000000 0.000000
								CHANNELS 3 Zrotation Yrotation Xrotation
								JOINT LeftHandIndex1
								{
									OFFSET 0.750000 0.000000 0.000000
									CHANNELS 3 Zrotation Yrotation Xrotation
									End Site
									{
										OFFSET 0.000000 0.000000 0.000000
									}
								}
							}
						}
					}
				}
				JOINT RightShoulder
				{
					OFFSET 0.000000 0.000000 0.000000
					CHANNELS 3 Zrotation Yrotation Xrotation
					JOINT RightArm
					{
						OFFSET -2.700000 1.550000 -0.730000
						CHANNELS 3 Zrotation Yrotation Xrotation
						JOINT RightForeArm
						{
							OFFSET -5.450000 0.000000 0.000000
							CHANNELS 3 Zrotation Yrotation Xrotation
							JOINT RightHand
							{
								OFFSET -3.450000 0.000000 0.000000
								CHANNELS 3 Zrotation Yrotation Xrotation
								JOINT RightHandIndex1
								{
									OFFSET -0.750000 0.000000 0.000000
									CHANNELS 3 Zrotation Yrotation Xrotation
									End Site
									{
										OFFSET 0.000000 0.000000 0.000000
									}
								}
							}
						}
					}
				}
			}
		}
	}
}
MOTION
Frames: 7
Frame Time: 0.016667
-6.896460 16.121530 -22.937790 173.666908 62.722763 153.359505 -15.484205 14.051898 3.690337 6.939346 -4.645146 29.690357 -18.339132 14.116465 26.644757 0.816434 12.060205 1.566096 3.859940 0.905310 4.071000 18.348706 -8.298458 2.910202 13.765508 4.102218 -22.211318 1.628160 -7.158998 39.498354 -1.487770 -5.498174 3.307217 1.108180 -0.744200 2.060450 -0.212370 -8.133345 -8.631382 -3.232289 -3.045955 54.467828 7.556489 -7.787764 10.055030 1.003122 0.720040 -17.179747 2.009387 -10.652800 19.906119 9.047080 -12.783970 -28.449180 10.917281 -12.755256 2.819216 -30.212680 -9.829144 -6.150845 31.336495 -20.227574 -9.900352 -3.170299 3.180630 2.137700 0.212550 0.904700 1.269500 -14.905055 19.804221 17.216017 37.541819 4.498505 -5.142531 -20.083466 -4.508438 -0.495143 1.564789 -3.154783 0.179530 -0.830520 -2.605280 -1.435840 
-6.308300 16.138300 -23.213660 169.198721 62.192913 166.021019 -15.497519 13.904119 3.702793 3.616478 -5.721299 16.739127 -17.419060 12.433804 25.846189 0.595784 10.618663 2.057219 3.615200 0.547270 4.010920 18.126137 -8.324096 4.321555 15.158755 8.949524 -37.816340 -2.251838 -5.301178 45.290430 -1.428331 -5.846247 3.179997 0.835160 -0.742840 2.138570 -1.511802 -6.307691 -9.073868 -1.115532 -15.001349 45.467325 6.115623 -3.981466 -31.551305 2.452966 -1.238753 -10.932748 -3.531174 -9.953421 29.639642 0.051240 -11.968330 -18.355950 10.960021 12.969109 -3.945157 -38.375369 -8.795819 3.337567 16.016191 -32.307721 -2.864325 -3.181017 3.291873 2.063070 0.297870 0.836290 1.214100 -19.883115 -1.576946 8.634840 36.029017 7.340091 -2.017537 -15.025866 10.167474 -0.183612 1.497526 -3.053110 0.189940 -1.038530 -2.559040 -1.476430 
-5.972710 16.178060 -23.348910 168.518887 62.238576 167.652377 -15.522805 13.983082 3.680510 3.698342 -6.631815 14.943365 -17.334240 12.732650 27.845664 0.533632 10.710538 1.962454 3.607210 0.523360 4.012780 18.089828 -8.190409 4.460766 15.881871 9.492611 -38.022306 -3.317249 -5.073509 47.296765 -1.524757 -6.160023 3.076178 0.801670 -0.803510 2.176930 -1.283264 -6.684293 -9.225617 -1.674807 -14.469969 40.252470 5.446696 -2.703223 -33.630801 5.004554 -0.808471 -9.333995 -4.379059 -12.295957 33.505701 -0.982160 -14.779040 -20.247760 8.072772 13.487108 -6.295400 -29.446789 -19.226586 7.143839 8.389039 -15.340605 -2.199460 -3.312408 2.953481 2.132090 0.264690 0.877170 1.170270 -19.172405 -4.034552 8.185084 31.331303 3.078156 -2.906642 -12.025267 13.736229 0.377479 1.385936 -2.984975 0.210430 -1.069260 -2.522710 -1.497470 
-5.651570 16.270650 -23.479190 167.393339 61.645307 169.396964 -15.500701 14.225459 3.704188 3.037752 -7.472058 12.113825 -15.487314 11.964810 29.473119 0.331231 10.466950 1.966859 3.735970 0.588700 4.221780 18.039918 -8.317157 4.385842 14.827283 8.762250 -37.790436 -2.099491 -5.433901 45.369250 -1.447155 -5.855999 3.095208 0.872660 -0.905810 2.204880 -1.014713 -7.041462 -9.213337 -2.186665 -14.626059 34.236243 5.608124 -2.136870 -34.933581 7.330085 -0.349758 -8.274081 -4.769432 -13.940193 34.279313 -3.919750 -16.252880 -19.079790 7.551218 12.800193 -7.793578 -24.892546 -29.851444 12.086859 6.775166 3.312631 -2.757525 -3.611143 2.576238 2.146000 0.246680 0.901170 1.113870 -20.591706 -5.541400 7.335538 28.285626 0.095511 -3.497643 -9.922983 14.038888 0.670204 1.368019 -3.046700 0.231300 -1.120590 -2.582750 -1.558870 
-5.306730 16.365510 -23.596090 164.804654 63.361962 171.355038 -15.456158 14.014191 3.774239 1.225213 -7.196538 8.308778 -15.881055 11.771101 29.247500 0.299970 10.117064 2.096762 3.502790 0.345710 4.126170 18.029741 -8.519856 4.623216 14.581149 9.514549 -38.441091 -2.162319 -4.793241 43.426468 -1.253521 -5.493000 3.246265 0.708170 -0.863200 2.183170 -1.287247 -6.209095 -9.310129 0.290719 -12.584550 25.305160 1.981763 -1.990332 -35.003703 8.746741 1.043818 -10.076982 -3.285544 -15.383260 35.324865 -7.995500 -16.356360 -13.556210 6.267803 8.212991 -5.675410 -16.266635 -28.301381 9.632484 7.247041 -2.570776 -2.630029 -3.618820 2.623075 2.079070 0.325920 0.813590 1.024450 -20.531689 -3.795794 8.602946 26.953809 -10.375877 -5.910671 -9.349435 19.306154 1.404795 1.300654 -3.080126 0.188010 -1.178050 -2.493500 -1.577380 
-5.022770 16.518610 -23.693310 166.321247 65.742339 174.276913 -15.408841 14.311330 3.827307 0.790850 -6.745446 6.842323 -14.079961 10.772834 28.089841 0.225987 9.623112 2.253470 3.472390 0.250340 4.254200 18.005385 -8.531403 4.709660 15.556016 9.531000 -35.516785 -1.854395 -4.326797 39.969484 -1.060846 -4.910621 3.405032 0.638660 -0.879580 2.177720 -1.202247 -6.625544 -9.411522 3.725502 -12.619442 20.613338 0.649241 -1.457316 -34.909273 9.015524 -0.171173 -10.910339 -5.939767 -13.383121 36.830678 -9.466250 -15.042570 -9.292260 7.131674 7.658752 -4.956571 -14.655496 -27.765517 9.375071 4.270534 -0.454124 -2.558101 -3.623050 2.596459 2.016430 0.339820 0.767000 0.930000 -20.920865 -2.521495 8.267754 24.382789 -9.588680 -5.697681 -9.137320 18.053419 1.276526 1.462015 -3.085959 0.197420 -1.271950 -2.526510 -1.588670 
-4.735290 16.735030 -23.729490 162.945365 66.599261 173.368224 -15.314726 14.278594 3.925415 -1.035125 -6.279997 4.073424 -12.767704 9.579783 26.735620 -0.044127 9.008803 2.449692 3.411880 0.145000 4.261410 18.001188 -9.014459 4.582569 13.184121 8.750331 -34.415393 0.395608 -4.782994 36.865358 -0.916207 -4.501187 3.546905 0.617820 -0.855790 2.132130 -1.284901 -5.870166 -9.375844 2.206422 -11.126100 15.970713 1.835354 -1.311984 -35.223789 8.602095 0.524393 -11.699609 -5.234934 -13.138315 38.302086 -8.998370 -15.133100 -8.233530 8.903522 6.816073 -4.291552 -14.870374 -28.560309 10.104999 3.927502 1.562951 -2.644004 -3.636711 2.461012 2.091130 0.341650 0.727540 0.891140 -21.588731 -3.065753 8.017857 21.804428 -10.631049 -5.731054 -7.545008 17.555509 1.355277 1.431874 -2.990803 0.095720 -1.235150 -2.493330 -1.642090 
